<svg xmlns="http://www.w3.org/2000/svg" width="59" height="81" viewBox="0 0 51 77">
    <defs>
        <rect id="rect-1" width="51" height="77" x="0" y="0"/>
        <rect id="rect-3" width="18.889" height="15" x="16" y="62"/>
    </defs>
    <g>
        <path fill="#D7D7D7" fill-rule="evenodd"
              d="M51 25.35366058C51 11.3605957 39.57383728 0 25.5 0 11.42616653 0 0 11.3605957 0 25.35366058s11.42616653 25.35366059 25.5 25.35366059c14.07383728 0 25.5-11.3605957 25.5-25.35366059zM25.5 5.63414574c2.81476593 0 5.09999847 2.27211952 5.09999847 5.0707302 0 2.7986145-2.28523254 5.07073212-5.09999847 5.07073212s-5.09999847-2.27211761-5.09999847-5.07073211c0-2.7986107 2.28523254-5.07073021 5.09999847-5.07073021zm-7.74444199 12.95853614c0-2.7986145-2.28523254-5.07073211-5.10000228-5.07073211-2.81476594 0-5.09999848 2.27211761-5.09999848 5.07073211S9.8407898 23.663414 12.65555573 23.663414c2.81476974 0 5.10000228-2.27211761 5.10000228-5.07073212zm25.68888474 0c0-2.7986145-2.28523254-5.07073211-5.09999848-5.07073211-2.81476593 0-5.09999847 2.27211761-5.09999847 5.07073211s2.28523254 5.07073212 5.09999847 5.07073212c2.81476594 0 5.09999848-2.27211761 5.09999848-5.07073212zm-13.06381226 6.8603859l-4.80832672-4.80832672-4.7807312 4.7807312 4.80832672 4.80832672 4.7807312-4.7807312zm-12.62507248 6.66156769c0-2.7986145-2.28523254-5.07073212-5.10000228-5.07073212-2.81476594 0-5.09999848 2.27211762-5.09999848 5.07073212 0 2.79861068 2.28523254 5.07073211 5.09999848 5.07073211 2.81476974 0 5.10000228-2.27212143 5.10000228-5.07073211zm20.58888626-5.07073212c2.81476594 0 5.09999848 2.27211762 5.09999848 5.07073212 0 2.79861068-2.28523254 5.07073211-5.09999848 5.07073211-2.81476593 0-5.09999847-2.27212143-5.09999847-5.07073211 0-2.7986145 2.28523254-5.07073212 5.09999847-5.07073212zM25.5 34.93170547c2.81476593 0 5.09999847 2.27211762 5.09999847 5.07073212 0 2.79861069-2.28523254 5.0707283-5.09999847 5.0707283s-5.09999847-2.27211761-5.09999847-5.0707283c0-2.7986145 2.28523254-5.07073212 5.09999847-5.07073212z"/>
        <g class="logo-bottom">
            <path fill="#D7D7D7" fill-rule="evenodd"
                  d="M17.37777778 64.9804878h16.24444444V72c0 2.75957512-2.24042488 5-5 5h-6.24444444c-2.75957512 0-5-2.24042488-5-5v-7.0195122z"/>
            <path fill="#D7D7D7" fill-rule="evenodd"
                  d="M17.50243902 62h15.88401084c.82921868 0 1.50243903.67322035 1.50243903 1.50243902 0 .82921868-.67322035 1.50243903-1.50243903 1.50243903H17.50243902C16.67322035 65.00487805 16 64.3316577 16 63.50243902 16 62.67322035 16.67322035 62 17.50243902 62z"/>
        </g>
        <g class="logo-middle">
            <rect width=".76" height="26" x="11.525" y="37.835" fill="#D7D7D7"
                  transform="rotate(-25.99988 11.9025212 50.98146032)"/>
            <rect width=".76" height="26" x="38.725" y="37.835" fill="#D7D7D7"
                  transform="scale(-1 1) rotate(-25.99988 0 220.35389286)"/>
            <rect width="1" height="15" x="25" y="49" fill="#D7D7D7"/>
        </g>
    </g>
</svg>